<?xml version="1.0" standalone="no"?><!DOCTYPE svg PUBLIC "-//W3C//DTD SVG 1.1//EN" "http://www.w3.org/Graphics/SVG/1.1/DTD/svg11.dtd"><svg t="1635685622272" class="icon" viewBox="0 0 1024 1024" version="1.1" xmlns="http://www.w3.org/2000/svg" p-id="6010" xmlns:xlink="http://www.w3.org/1999/xlink" width="200" height="200"><defs><style type="text/css"></style></defs><path d="M886.528 959.744V115.456L753.536 0 310.144 166.144v41.984L712.704 71.936v949.376h268.544v-60.416H887.04v-1.152h-0.512z m-720.64-260.352l210.816-41.984v-107.264l-210.816 55.552v93.696z m0 322.432h210.816v-112.768l-210.816 15.232v97.536z m0-161.792l210.816-20.736v-107.264L165.888 768v92.032z m0-323.456l210.816-58.24v-111.616l-210.816 71.936v97.92z m444.928-277.248L491.008 186.88 42.752 348.16v675.84h59.392V380.672L438.272 270.08v749.44h173.184l-0.64-760.192z m0 0" p-id="6011"></path></svg>