<?xml version="1.0" encoding="utf-8"?>
<!-- Generator: Adobe Illustrator 24.2.0, SVG Export Plug-In . SVG Version: 6.00 Build 0)  -->
<svg version="1.1" id="图层_1" xmlns="http://www.w3.org/2000/svg" xmlns:xlink="http://www.w3.org/1999/xlink" x="0px" y="0px"
	 viewBox="0 0 200 200" style="enable-background:new 0 0 200 200;" xml:space="preserve">
<g>
	<path d="M201.7,197.4c0,1.4-1.1,2.6-2.5,2.6c0,0-0.2,0-0.4,0c-2.5,0-16.5-0.4-24.3-8c-1.2-1.2-2.2-2.4-3-3.8
		c-7.5,10.9-27.7,11.8-28.8,11.9c0,0,0,0,0,0s0,0,0,0c0,0-0.2,0-0.4,0c-2.5,0-16.5-0.4-24.3-8c-1.2-1.2-2.2-2.4-3-3.8
		c-6,8.7-19.9,11-26,11.7c-0.3,0.1-0.6,0.2-1,0.2c-0.1,0-0.2,0-0.4,0c-0.2,0-0.6,0-1.1,0c-0.2,0-0.3,0-0.4,0c-0.2,0-0.5,0-0.7-0.1
		c-4.9-0.3-15.6-1.6-22.2-8c-1.2-1.2-2.2-2.4-3-3.8c-5.9,8.6-19.7,11-25.8,11.6c-0.3,0.1-0.7,0.2-1,0.2c0,0-0.2,0-0.4,0
		c-0.3,0-0.7,0-1.2,0c-0.2,0-0.3,0-0.4,0c-0.3,0-0.5,0-0.7-0.1c-4.9-0.3-15.5-1.6-22-8c-1.2-1.2-2.2-2.4-3-3.8
		C-1.6,199-21.8,200-22.8,200c-1.4,0.1-2.6-1.1-2.7-2.5c-0.1-1.4,1-2.6,2.5-2.7c0.3,0,26.6-1.3,26.6-16c0-1.4,1.1-2.6,2.6-2.6
		c1.4,0,2.6,1.2,2.6,2.6c0,3.8,1.2,6.9,3.8,9.4c5.6,5.5,15.7,6.4,19.5,6.6c3.7-0.3,26.1-2.4,26.1-16c0-1.4,1.1-2.6,2.6-2.6
		c1.4,0,2.6,1.2,2.6,2.6c0,3.8,1.2,6.9,3.8,9.4c5.6,5.5,15.8,6.4,19.6,6.6c3.6-0.2,26.2-2.3,26.2-16c0-1.4,1.2-2.6,2.6-2.6
		c1.4,0,2.6,1.2,2.6,2.6c0,3.8,1.2,6.9,3.8,9.4c6.9,6.8,20.7,6.6,21,6.6c0.8,0,26.6-1.4,26.6-16c0-1.4,1.2-2.6,2.6-2.6
		s2.6,1.2,2.6,2.6c0,3.8,1.2,6.9,3.8,9.4c6.9,6.8,20.8,6.6,21,6.6C200.6,194.8,201.7,196,201.7,197.4z"/>
	<path d="M216.2,171.2c-0.1,0-14.1,0.2-21-6.6c-2.5-2.5-3.8-5.6-3.8-9.4c0-1.4-1.2-2.6-2.6-2.6s-2.6,1.1-2.6,2.6
		c0,14.6-25.8,15.9-26.6,16c-0.1,0-2.9,0-6.6-0.5c5.9-5.9,9.6-14,9.6-23l0-12.4c0-16.2,1.1-19.7-11.9-20.3l-26.6-91.3
		C124,10.5,113.3,0,100.2,0c-13.2,0-24,10.7-24,24c0,1.1,0.1,2.1,0.2,3.2l-25.6,87.8c-14.3,0.4-13.2,3.6-13.2,20.3v12.4
		c0,7.6,2.6,14.5,7,20c-3.9-0.9-8.3-2.5-11.3-5.5c-2.5-2.5-3.8-5.6-3.8-9.4c0-1.4-1.1-2.6-2.6-2.6c-1.4,0-2.6,1.2-2.6,2.6
		c0,14.7-26.4,16-26.6,16c-1.4,0.1-2.5,1.3-2.5,2.7c0.1,1.4,1.2,2.6,2.7,2.5c1,0,21.2-1,28.8-11.9c0.8,1.4,1.8,2.7,3,3.8
		c6.1,6,15.9,7.5,21.1,7.9c0.1,0.1,0.2,0.2,0.3,0.3c0.2-0.1,0.5-0.1,0.8-0.2c0,0,0,0,0,0c7.8-1.7,18.1-5.6,18.1-14.8
		c0-1.4,1.1-2.6,2.6-2.6c1.4,0,2.6,1.1,2.6,2.6c0,3.8,1.2,6.9,3.8,9.4c5.6,5.5,15.8,6.4,19.6,6.6c3.6-0.2,26.2-2.3,26.2-16
		c0-1.4,1.2-2.6,2.6-2.6s2.6,1.1,2.6,2.6c0,3.8,1.2,6.9,3.8,9.4c3.4,3.3,8.4,5,12.7,5.8c0,0,0,0.1-0.1,0.1c6,1.8,11.6,1.9,13.1,1.9
		c0.2,0,0.3,0,0.4,0c0,0,0,0,0,0h0c1,0,21.2-1,28.8-11.9c0.8,1.4,1.8,2.7,3,3.8c7.9,7.7,21.9,8,24.3,8c0.2,0,0.3,0,0.4,0
		c1.4,0,2.5-1.2,2.5-2.6C218.8,172.3,217.6,171.1,216.2,171.2z M58.6,114.8l22.3-76.7c4.4,5.9,11.4,9.8,19.3,9.8
		c8.5,0,15.9-4.4,20.2-11.1l22.7,78H58.6z"/>
</g>
</svg>
