<?xml version="1.0" standalone="no"?><!DOCTYPE svg PUBLIC "-//W3C//DTD SVG 1.1//EN" "http://www.w3.org/Graphics/SVG/1.1/DTD/svg11.dtd"><svg t="1636687021237" class="icon" viewBox="0 0 1024 1024" version="1.1" xmlns="http://www.w3.org/2000/svg" p-id="4557" xmlns:xlink="http://www.w3.org/1999/xlink" width="200" height="200"><defs><style type="text/css"></style></defs><path d="M0.783 898.108V124.506c6.024-10.48 15.54-14.577 27.347-16.444 22.407-3.554 44.634-8.192 66.982-12.348C240.038 68.548 384.964 41.562 529.89 14.396 552.78 10.12 575.488 5.12 598.257 0.542h12.228c12.65 5 16.866 14.517 16.685 27.528-0.422 27.949-0.12 55.958-0.12 83.907v11.264h14.817l332.258-0.06c17.65 0 34.033 3.494 42.707 19.697 4.638 8.734 6.987 19.637 6.987 29.515 0.362 226.485 0.301 453.03 0.301 679.575 0 2.65 0.06 5.3-0.06 7.951-1.325 19.577-12.89 34.997-30.54 39.394a89.329 89.329 0 0 1-21.202 1.988c-110.411 0.12-220.822 0.06-331.234 0.06H627.05v12.047c0 28.913 0.12 57.946 0 86.92-0.12 16.865-11.023 25.78-27.889 22.768-24.696-4.457-49.392-9.095-74.029-13.733-166.61-31.082-333.221-62.283-499.953-93.184-11.565-2.169-20.118-6.927-24.335-18.07z m584.162 80.716V45.779L43.068 146.974v730.654l541.877 101.196z m42.767-528.083v102.64h82.281v41.202h-82.16V717.16h81.92v41.262h-81.92v101.315h353.58V165.045h-353.58v101.858h82.341v40.96h-82.342v102.52h82.101v40.358h-82.341z" p-id="4558"></path><path d="M315.693 468.872c17.71-50.96 47.285-93.968 70.957-139.927 1.627-3.193 6.144-6.927 9.337-6.987 29.214-0.542 58.428-0.302 87.642-0.181 0.904 0 1.807 0.602 3.434 1.205-1.868 3.373-3.494 6.565-5.422 9.637-35.117 56.923-70.174 113.845-105.532 170.707-3.674 5.903-3.674 10.06 0 15.962 36.563 58.007 72.764 116.255 109.026 174.442 1.807 2.83 3.433 5.722 5.722 9.638-3.252 0.36-5.662 0.843-8.131 0.843-28.913 0.06-57.766-0.12-86.619 0.18-6.144 0.06-9.637-1.505-12.589-7.167-19.998-37.768-40.659-75.234-60.657-113.062-4.758-9.035-7.53-19.034-9.999-25.299-23.672 44.092-48.67 90.353-73.246 136.915-3.433 6.566-7.288 8.794-14.818 8.674-30.84-0.482-61.68-0.18-94.51-0.18 2.591-4.217 4.398-7.23 6.265-10.12 37.587-57.826 75.054-115.652 112.881-173.358 3.855-5.842 3.855-9.999 0.241-15.962-34.334-57.404-68.427-114.929-102.58-172.454-1.807-3.011-3.434-6.204-6.024-10.782h33.913c21.684 0 43.43-0.24 65.174 0.241 3.494 0.12 8.614 2.831 10 5.723 19.455 39.514 38.55 79.27 57.403 119.024 3.072 6.626 5 13.674 8.132 22.288z m437.55 136.312v-51.2H919.01v51.2H753.242z m165.767-338.1v51.2H753.483v-51.2H919.01z m-0.06 450.5v51.2H753.544v-51.2H918.95z m-165.768-255.76v-51.2H918.95v51.2H753.182z" p-id="4559"></path></svg>