<?xml version="1.0" standalone="no"?><!DOCTYPE svg PUBLIC "-//W3C//DTD SVG 1.1//EN" "http://www.w3.org/Graphics/SVG/1.1/DTD/svg11.dtd"><svg t="1596602772954" class="icon" viewBox="0 0 1024 1024" version="1.1" xmlns="http://www.w3.org/2000/svg" p-id="4035" xmlns:xlink="http://www.w3.org/1999/xlink" width="200" height="200"><defs><style type="text/css"></style></defs><path d="M2.27555555 111.38844445v797.01333333h251.33511112V111.38844445H2.27555555z m42.21155556 96.59733333h167.02577778v65.99111111H44.48711111v-65.99111111z m0 112.75377777h167.02577778v65.99111112H44.48711111v-65.99111112z m83.51288889 475.24977778c-46.87644445 0-84.87822222-37.888-84.87822222-84.87822222 0-46.87644445 37.888-84.87822222 84.87822222-84.87822222S212.76444445 664.23466667 212.76444445 711.11111111c0 46.99022222-37.888 84.87822222-84.76444445 84.87822222zM276.48 111.38844445v797.01333333h251.33511111V111.38844445H276.48z m42.21155555 96.59733333h167.02577778v65.99111111H318.69155555v-65.99111111z m0 112.75377777h167.02577778v65.99111112H318.69155555v-65.99111112z m83.5128889 475.24977778c-46.87644445 0-84.87822222-37.888-84.87822223-84.87822222 0-46.87644445 37.888-84.87822222 84.87822223-84.87822222s84.87822222 37.888 84.87822222 84.87822222-38.00177778 84.87822222-84.87822222 84.87822222z m351.45955555-699.50577778l-225.05244445 80.4408889 268.06044445 750.592L1021.72444445 847.07555555 753.664 96.48355555z m-158.72 159.2888889l157.24088889-56.20622223 22.18666666 62.12266667-157.24088888 56.20622222c-0.11377778 0-22.18666667-62.12266667-22.18666667-62.12266666z m37.888 106.04088888l157.24088889-56.20622222 22.18666666 62.12266667-157.24088888 56.20622222-22.18666667-62.12266667z m237.34044445 419.95377778c-44.032 15.81511111-92.72888889-7.28177778-108.43022223-51.31377778-15.81511111-44.032 7.28177778-92.72888889 51.31377778-108.43022222 44.032-15.81511111 92.72888889 7.28177778 108.43022222 51.31377778 15.81511111 44.14577778-7.28177778 92.72888889-51.31377777 108.43022222z" p-id="4036"></path></svg>