<?xml version="1.0" encoding="utf-8"?>
<!-- Generator: Adobe Illustrator 24.2.0, SVG Export Plug-In . SVG Version: 6.00 Build 0)  -->
<svg version="1.1" id="图层_1" xmlns="http://www.w3.org/2000/svg" xmlns:xlink="http://www.w3.org/1999/xlink" x="0px" y="0px"
	 viewBox="0 0 800 800" style="enable-background:new 0 0 800 800;" xml:space="preserve">
<path d="M-341.6-110.6"/>
<g>
	<g>
		<g>
			<path d="M610.1,420.2c-104.9,0-189.9,85.1-189.9,189.9S505.2,800,610.1,800C714.9,800,800,714.9,800,610.1S715,420.2,610.1,420.2
				L610.1,420.2z M610.1,758.7c-82.1,0-148.6-66.5-148.6-148.6c0-82.2,66.5-148.6,148.6-148.6c82.2,0,148.6,66.5,148.6,148.6
				C758.7,692.3,692.2,758.7,610.1,758.7L610.1,758.7z M624.6,502.8h-28.9v113.3l70.3,70.3l20.5-20.5l-61.9-61.9V502.8z
				 M624.6,502.8"/>
		</g>
	</g>
	<path d="M18.5,243.5l337.2,185c24.7,13.5,64.6,13.6,89.2,0l336.3-184.4c24.6-13.5,24.5-35.4-0.1-49L444,10.2
		c-24.7-13.5-64.6-13.6-89.2,0L18.4,194.7C-6.2,208.2-6.1,230,18.5,243.5L18.5,243.5z"/>
	<g>
		<path d="M382.4,536.7c-3.6-1-7-2.3-10-4l-210-115.1c-7.6-4.2-11.5-9.6-11.5-15.1H0.1c0.1,8.8,6.3,17.5,18.5,24.3l337.2,185
			c4.6,2.5,9.8,4.6,15.3,6.2c-0.1-2.6-0.1-5.2-0.1-7.8C370.9,584.5,375,559.8,382.4,536.7z"/>
		<path d="M781.2,427.3c12.4-6.8,18.6-15.7,18.4-24.7H729c15,8.6,29,18.8,41.8,30.4L781.2,427.3z"/>
		<path d="M396,716.8c-8.6-0.5-17-2.6-23.6-6.2l-210-115.2c-7.6-4.2-11.5-9.6-11.5-15.1H0.1c0.1,8.8,6.3,17.5,18.5,24.3l337.2,185
			c24.7,13.5,64.6,13.6,89.2,0l4.3-2.4C427.5,767.3,409.3,743.4,396,716.8z"/>
	</g>
</g>
</svg>
