<?xml version="1.0" standalone="no"?><!DOCTYPE svg PUBLIC "-//W3C//DTD SVG 1.1//EN" "http://www.w3.org/Graphics/SVG/1.1/DTD/svg11.dtd"><svg t="1636687035929" class="icon" viewBox="0 0 1024 1024" version="1.1" xmlns="http://www.w3.org/2000/svg" p-id="4959" xmlns:xlink="http://www.w3.org/1999/xlink" width="200" height="200"><defs><style type="text/css"></style></defs><path d="M876.5184 730.9056c-60.352 0-112.3584 36.224-135.1552 87.9488H702.08c-32.5632 0-58.9696 26.24-58.9696 58.5984s26.4064 58.5984 58.9696 58.5984h39.2832C764.16 987.776 816.1664 1024 876.5184 1024 957.8496 1024 1024 958.2592 1024 877.4528c0-79.4368-67.5328-146.5472-147.4816-146.5472z m0 199.3344c-29.2992 0-53.12-23.6928-53.12-52.7872 0-29.1072 23.8336-52.7872 53.12-52.7872 25.0752 0 53.12 22.5792 53.12 52.7872 0.0128 29.1072-23.8208 52.7872-53.12 52.7872zM870.6048 365.2608c-4.672 21.5424-13.7856 38.6048-27.8528 52.1728-23.36 22.5408-23.936 59.6352-1.2544 82.8672 11.5712 11.84 26.944 17.792 42.3296 17.792 14.784 0 29.6064-5.504 41.0496-16.5504 30.8864-29.7856 51.4176-67.328 61.0176-111.6032 6.8608-31.6288-13.3888-62.8096-45.2352-69.6192-31.8208-6.8096-63.1936 13.312-70.0544 44.9408zM511.5648 818.8544h-95.2064c-32.5632 0-58.9696 26.24-58.9696 58.5984s26.4064 58.5984 58.9696 58.5984h95.2064c32.576 0 58.9696-26.24 58.9696-58.5984s-26.4064-58.5984-58.9696-58.5984zM102.7072 705.3824c26.9056 0 51.2-18.4064 57.4336-45.5808 4.8768-21.312 14.2848-38.3232 28.736-52.0576 23.5392-22.3744 24.3712-59.4688 1.856-82.8544-22.5152-23.3984-59.84-24.2176-83.3792-1.8432-31.2192 29.6704-52.1472 66.9184-62.1952 110.6816-7.2448 31.5648 12.6336 62.976 44.3776 70.1696 4.416 1.0112 8.832 1.4848 13.1712 1.4848zM787.8144 211.5328c23.4368 6.5792 42.3552 16.96 56.2176 30.848 11.52 11.5456 26.688 17.3184 41.856 17.3184 15.0144 0 30.0416-5.6576 41.536-17.0112 23.1168-22.7968 23.2576-59.904 0.32-82.88-28.3648-28.416-64.6656-48.96-107.904-61.0816-31.3344-8.7936-63.9232 9.3312-72.768 40.4864-8.8448 31.1552 9.3824 63.5264 40.7424 72.32zM242.4064 812.4928c-23.5264-6.5408-42.496-16.8576-56.3584-30.656-23.0144-22.8992-60.352-22.9376-83.392-0.064-23.04 22.8608-23.0784 59.968-0.0768 82.88 28.3904 28.2624 64.768 48.704 108.0832 60.736 5.312 1.472 10.6496 2.176 15.9104 2.176 25.792 0 49.472-16.9472 56.768-42.8416 8.7552-31.168-9.5616-63.5136-40.9344-72.2304zM266.5088 512c0 32.3584 26.3936 58.5984 58.9696 58.5984h95.2064c32.5632 0 58.9696-26.24 58.9696-58.5984s-26.4064-58.5984-58.9696-58.5984h-95.2064c-32.5504 0-58.9696 26.24-58.9696 58.5984zM552.128 512c0 32.3584 26.4064 58.5984 58.9696 58.5984h95.2064c32.5632 0 58.9696-26.24 58.9696-58.5984s-26.4064-58.5984-58.9696-58.5984h-95.2064c-32.5632 0-58.9696 26.24-58.9696 58.5984zM147.4816 293.0944c60.352 0 112.3456-36.224 135.1552-87.9488h45.7472c32.5632 0 58.9696-26.24 58.9696-58.5984s-26.4064-58.5984-58.9696-58.5984h-46.2208C258.9056 36.7104 206.592 0 147.4816 0 66.1504 0 0 65.7408 0 146.5472s66.1504 146.5472 147.4816 146.5472z m0-199.3344c25.0752 0 53.12 22.5792 53.12 52.7872 0 29.1072-23.8336 52.7872-53.12 52.7872s-53.12-23.6928-53.12-52.7872c-0.0128-29.1072 23.8336-52.7872 53.12-52.7872zM518.7968 205.1456h95.2064c32.5632 0 58.9696-26.24 58.9696-58.5984s-26.4064-58.5984-58.9696-58.5984h-95.2064c-32.5632 0-58.9696 26.24-58.9696 58.5984s26.4064 58.5984 58.9696 58.5984z" p-id="4960"></path></svg>