<?xml version="1.0" standalone="no"?><!DOCTYPE svg PUBLIC "-//W3C//DTD SVG 1.1//EN" "http://www.w3.org/Graphics/SVG/1.1/DTD/svg11.dtd"><svg t="1592268309680" class="icon" viewBox="0 0 1024 1024" version="1.1" xmlns="http://www.w3.org/2000/svg" p-id="3750" xmlns:xlink="http://www.w3.org/1999/xlink" width="200" height="200"><defs><style type="text/css"></style></defs><path d="M426.5919526 268.13026208m-269.04819385 0a269.04819386 269.04819386 0 1 0 538.09638772 0 269.04819386 269.04819386 0 1 0-538.09638772 0Z" p-id="3751"></path><path d="M486.36783715 716.50610959c0 158.57056282 123.52170452 288.33073725 279.71030608 298.31228915-3.51622851 0.34028017-7.03245701 0.56713363-10.66211222 0.56713362H97.76787418c-49.56747922 0-89.7205402-40.15306097-89.72054018-89.72054018v-59.77588455c0-132.02870895 119.55176911-269.04819386 298.87942277-269.04819387h204.16810664c-15.87974163 36.63683247-24.72702623 77.13017361-24.72702626 119.66519583z" p-id="3752"></path><path d="M785.24725994 477.28914467C917.2759689 477.28914467 1024.35079814 584.36397393 1024.35079814 716.50610959s-107.07482925 239.10353822-239.1035382 239.10353822S546.14372171 848.53481855 546.14372171 716.50610959s107.07482925-239.21696495 239.10353823-239.21696492zM934.74368468 701.53378177H635.75083518v119.55176911c0 16.56030199 13.38435366 29.94465564 29.94465565 29.94465564h239.1035382c16.56030199 0 29.94465564-13.38435366 29.94465565-29.94465564V701.53378177zM770.27493211 581.98201267h-93.80390232c-6.46532338 0-12.13665967 4.08336214-14.17834074 10.20840534l-26.42842714 79.39870813H770.27493211v-89.60711347z m123.74855796 0h-93.80390231v89.72054021H934.74368468l-26.42842715-79.39870815c-2.1551078-6.23846992-7.82644409-10.32183206-14.29176746-10.32183206z" p-id="3753"></path></svg>