<?xml version="1.0" encoding="utf-8"?>
<!-- Generator: Adobe Illustrator 22.1.0, SVG Export Plug-In . SVG Version: 6.00 Build 0)  -->
<svg version="1.1" id="图层_1" xmlns="http://www.w3.org/2000/svg" xmlns:xlink="http://www.w3.org/1999/xlink" x="0px" y="0px"
	 viewBox="0 0 800 800" style="enable-background:new 0 0 800 800;" xml:space="preserve">
<polygon points="756.8,672.3 756.8,753.5 685,753.5 685,800 800,800 800,672.3 "/>
<polygon points="42.8,753.5 42.8,674.2 -0.4,674.2 -0.4,800 110.8,800 110.8,753.5 "/>
<rect x="150" y="773.3" width="500" height="14"/>
<path d="M70.8,605.1c10.5-3,19.9-5.4,29.4-8.1c27.3-6.9,54.6-14.1,81.7-21.3c23.1-6.3,46.6-12.6,70.2-19.5
	c13.2-3.2,24.8-11.1,32.7-22.2c3.9-5.6,5.9-12.2,5.7-19v-22.2c5,6.7,10.7,12.9,17,18.4c17,16.8,37.6,29.6,60.3,37.2
	c22,7.3,45.8,6.2,67-3.2c20.4-8.4,38.7-20.9,54-36.9c1.4-1.6,2.7-3.3,4-5.1c0.3,0,0.7,0.5,1.3,0.5v7.3c-1.2,17.2,8.6,33.2,24.5,39.9
	c15.3,7.3,31.4,12.7,48,15.9L673.9,594c15.4,3.6,30.8,7.6,47.1,11.7c-72.4,86.8-164,140.4-276.2,152.5c-17.2,1.9-34.5,2.8-51.8,2.8
	C265.5,761.1,158.4,707.2,70.8,605.1L70.8,605.1z"/>
<rect x="774.1" y="150" width="14" height="500"/>
<rect x="13.7" y="150" width="14" height="500"/>
<path d="M366.6,508.5c-20.3-5.8-39.2-15.5-55.8-28.5c-17.3-13.4-31.5-30.4-41.6-49.9c-5.8-11.1-10.9-22.5-15.3-34.2H57.3v-8.3h193.4
	c-7.2-20.5-13-41.4-17.4-62.6c-4-19-7.6-38-10.8-57.1c-2-11.4-2.3-23.1-3.3-34.5c-1.3-13.7-1.9-27.4-1.8-41.1
	c-0.4-20.1,2.6-40.2,8.7-59.4c5.6-15.4,14.1-29.7,24.9-42c19.2-21.4,44.4-36.4,72.4-43.2c16.1-4.6,32.8-7.2,49.5-7.8
	c11-0.4,21.3-1.4,31.8-0.9c29.3,0.4,58.2,6.4,85.2,17.7c19.3,8.1,36.4,20.5,50.2,36.3c16,17.4,26.6,39.1,30.3,62.5
	c2.4,13.6,3.4,27.4,3.2,41.1l-0.2,6c-0.4,11.6-1.1,17.1-2,28.9c-1.5,20-4.9,39.4-7.6,59.4c-5,33-13.1,65.4-24.3,96.8h202.1v8.3
	H536.6c-5.7,16.8-13.6,32.9-23.4,47.7c-14.2,20.8-32.9,38.1-54.7,50.7c-15.7,8.6-32.7,14.6-50.3,17.7c-3.9,0.6-7.7,0.9-11.6,0.9
	C386.4,512.8,376.3,511.3,366.6,508.5L366.6,508.5z"/>
<polygon points="93.7,0 0,0 -0.4,0 -0.4,105.2 0,105.2 0,125.2 43.2,125.2 43.2,46.5 114.1,46.5 114.1,0 "/>
<polygon points="684.2,0 684.2,46.5 756.8,46.5 756.8,124.3 800,124.3 800,0 "/>
<rect x="146.7" y="15.7" width="506.6" height="14"/>
<path d="M147,15.9"/>
</svg>
