<?xml version="1.0" standalone="no"?><!DOCTYPE svg PUBLIC "-//W3C//DTD SVG 1.1//EN" "http://www.w3.org/Graphics/SVG/1.1/DTD/svg11.dtd"><svg t="1592267257219" class="icon" viewBox="0 0 1024 1024" version="1.1" xmlns="http://www.w3.org/2000/svg" p-id="4999" xmlns:xlink="http://www.w3.org/1999/xlink" width="200" height="200"><defs><style type="text/css"></style></defs><path d="M443.045888 3.81439999c-21.634048 4.01408-43.657216 25.494528-48.529408 47.776768l-3.702784 16.66252801c-11.49952 39.144448-36.640768 73.87340801-73.670656 95.955968-37.225472 22.081536-79.517696 27.300864-118.301696 17.665024l-15.20128-5.21932799c-21.049344-6.62528-50.08793601 2.00704-64.510976 19.47238399 0 0-12.862464 15.657984-37.614592 59.82208001-24.556544 44.164096-31.378432 63.235072-31.378432 63.235072-7.600128 21.479424-0.38912 51.591168 15.787008 67.24915198l12.08319999 11.64288001c27.285504 29.710336 43.851776 69.658624 43.85177602 113.82272 0 44.164096-16.760832 84.513792-44.24089601 114.224128l-11.69408 11.24147201C49.74592 652.822528 42.534912 683.134976 50.13504 704.6144c0 0 6.821888 19.27168 31.378432 63.435776 24.946688 44.164096 37.810176 59.621376 37.810176 59.621376 14.227456 17.46432 43.071488 26.09664 64.315392 19.472384l15.396864-4.81791999c38.784-9.435136 80.88064001-4.416512 118.106112 17.66502399 37.225472 22.08256 62.56128 57.212928 73.865216 96.559104l3.508224 16.059392C399.388672 994.691072 421.21728 1016.3712 443.045888 1020.38528c0 0 19.488768 3.613696 68.992 3.613696 49.50425601 0 68.993024-3.613696 68.993024-3.613696 21.828608-4.01408 43.657216-25.494528 48.529408-47.776768l3.508224-15.657984c11.303936-39.346176 36.639744-74.677248 74.059776-96.759808 37.225472-22.081536 79.517696-27.300864 118.301696-17.665024l15.00672 4.617216c21.049344 6.62528 50.08793601-2.00704 64.510976-19.472384 0 0 12.862464-15.657984 37.614592-59.82208 24.751104-44.164096 31.377408-63.235072 31.377408-63.235072 7.601152-21.479424 0.390144-51.591168-15.785984-67.249152l-11.49952-11.040768c-27.480064-29.91104-44.240896-70.060032-44.240896-114.424832 0-44.36480001 16.956416-84.714496 44.43648-114.424832l11.49952-11.040768c16.175104-15.45728 23.387136-45.769728 15.785984-67.249152 0 0-6.821888-19.27168-31.378432-63.435776-24.751104-44.164096-37.614592-59.621376-37.614592-59.621376-14.227456-17.46432-43.267072-26.09664-64.50995201-19.472384l-15.59244799 4.81792c-38.58944 9.435136-80.68608 4.416512-117.715968-17.665024-37.225472-22.08256-62.756864-57.413632-74.0608-96.759808l-3.508224-15.65696c-4.872192-22.08256-26.7008-43.762688-48.528384-47.777792 0 0-19.489792-3.613696-68.993024-3.613696-49.698816 0.200704-69.187584 3.81440001-69.187584 3.81440001zM710.24640001 511.899648c0 112.617472-88.677376 204.157952-198.20851201 204.157952-109.33555199 0-198.012928-91.339776-198.012928-204.157952 0-112.617472 88.677376-204.157952 198.208512-204.157952C621.568 307.9424 710.2464 399.28217599 710.24640001 511.899648z" p-id="5000"></path></svg>