<?xml version="1.0" standalone="no"?><!DOCTYPE svg PUBLIC "-//W3C//DTD SVG 1.1//EN" "http://www.w3.org/Graphics/SVG/1.1/DTD/svg11.dtd"><svg t="1636213784202" class="icon" viewBox="0 0 1024 1024" version="1.1" xmlns="http://www.w3.org/2000/svg" p-id="2645" xmlns:xlink="http://www.w3.org/1999/xlink" width="200" height="200"><defs><style type="text/css"></style></defs><path d="M232.285096 0h88.958888v115.646554h-88.958888zM702.756016 0h88.958888v115.646554h-88.958888z" p-id="2646"></path><path d="M874.171473 115.364958h-82.469369v153.367683h-88.958888V115.364958H321.243984v153.367683h-88.958888V115.364958h-82.469369c-56.152898 0-101.669129 45.516231-101.669129 101.669129v705.296784c0 56.152898 45.516231 101.669129 101.669129 101.669129h724.355746c56.152898 0 101.669129-45.516231 101.669129-101.669129V217.034087c0-56.152898-45.516231-101.669129-101.669129-101.669129zM422.40112 858.267672L164.228347 623.787403l51.032962-54.45052L422.40112 757.417732l386.209572-382.280021 51.173761 57.880876L422.40112 858.267672z" p-id="2647"></path></svg>