<?xml version="1.0" standalone="no"?><!DOCTYPE svg PUBLIC "-//W3C//DTD SVG 1.1//EN" "http://www.w3.org/Graphics/SVG/1.1/DTD/svg11.dtd"><svg t="1596603399566" class="icon" viewBox="0 0 1024 1024" version="1.1" xmlns="http://www.w3.org/2000/svg" p-id="8102" xmlns:xlink="http://www.w3.org/1999/xlink" width="200" height="200"><defs><style type="text/css"></style></defs><path d="M498.347 537.6h-240.64c-25.6 0-46.08-20.48-46.08-46.08s20.48-46.08 46.08-46.08h266.24c20.48 0 35.84 15.36 40.96 30.72 51.2-30.72 112.64-51.2 179.2-51.2 61.44 0 117.76 15.36 168.96 46.08v-281.6c0-51.2-51.2-97.28-107.52-97.28h-204.8C585.387 35.84 534.187 0 477.867 0c-61.44 0-107.52 35.84-122.88 92.16h-204.8c-61.44 0-112.64 40.96-112.64 97.28v699.733c0 51.2 51.2 97.28 107.52 97.28h353.28c-51.2-61.44-87.04-138.24-87.04-220.16 0-90.453 30.72-167.253 87.04-228.693z m-15.36-435.2c25.6 0 46.08 20.48 46.08 46.08s-20.48 46.08-46.08 46.08c-25.6 0-46.08-20.48-46.08-46.08-5.12-25.6 15.36-46.08 46.08-46.08z m-235.52 189.44h430.08c25.6 0 46.08 20.48 46.08 46.08S703.147 384 677.547 384h-430.08c-20.48-5.12-35.84-25.6-35.84-46.08s15.36-40.96 35.84-46.08z" p-id="8103"></path><path d="M757.76 491.52c-146.773 0-266.24 119.467-266.24 266.24S610.987 1024 757.76 1024C904.533 1024 1024 904.533 1024 757.76S904.533 491.52 757.76 491.52z m129.707 435.2l-117.76-68.267-117.76 68.267L680.96 793.6l-100.693-92.16L716.8 687.787 773.12 563.2l54.613 124.587 136.533 15.36-102.4 90.453 25.6 133.12z" p-id="8104"></path></svg>